# xmcd
#
# Track frame offsets:
#	150
#	10842
#	30084
#	47436
#	59858
#	71422
#	86140
#	101166
#	114613
#	128792
#	141956
#	156703
#	172551
#	185766
#	198850
#
# Disc length: 2835 seconds
#
# Revision: 0
# Processed by: cddbd v1.5.1PL0 Copyright (c) Steve Scherf et al.
# Submitted via: dBpowerAMP V4.0
#
DISCID=ce0b110f
DTITLE=Los Cuatro de la musica Tropical ColombianaCD03 - Grandes Maestros
DYEAR=2001
DGENRE=Latin
TTITLE0=Ven Ven
TTITLE1=Boquita Salá
TTITLE2=Ay Cosita Linda
TTITLE3=Quiero Amanecer
TTITLE4=El Merecumbé
TTITLE5=La Casa de Fernando
TTITLE6=La Butifarra de Pacho
TTITLE7=Atlántico
TTITLE8=Ligia
TTITLE9=Algo se me Va
TTITLE10=Las Cosas de la Vida
TTITLE11=Ave pa' Ve
TTITLE12=Guepa Je
TTITLE13=Juanita Bonita
TTITLE14=Diciembre Azul
EXTD=
EXTT0=
EXTT1=
EXTT2=
EXTT3=
EXTT4=
EXTT5=
EXTT6=
EXTT7=
EXTT8=
EXTT9=
EXTT10=
EXTT11=
EXTT12=
EXTT13=
EXTT14=
PLAYORDER=
